# This file uses centimeters as units for non-parametric coordinates.

mtllib Piece of track bend right.mtl
g default
v 9.702044 -0.177847 16.577317
v 15.334014 -0.177847 22.977488
v 9.702044 0.177844 16.577317
v 15.334014 0.177844 22.977488
v 13.918996 0.177844 7.104634
v 22.442896 0.177844 7.260928
v 13.918996 -0.177847 7.104634
v 22.442896 -0.177847 7.260928
v 12.956243 0.177844 12.585633
v 12.956243 -0.177847 12.585633
v 20.747117 -0.177847 16.047360
v 20.747117 0.177844 16.047360
v 11.429447 0.177844 15.041813
v 11.429447 -0.177847 15.041813
v 18.599870 -0.177847 19.653354
v 18.599870 0.177844 19.653354
v 13.709368 -0.177847 10.081987
v 13.709368 0.177844 10.081987
v 22.145015 0.177844 11.315317
v 22.145015 -0.177847 11.315317
v 13.435852 0.177844 11.307632
v 13.435852 -0.177847 11.307632
v 21.573684 -0.177847 13.848689
v 21.573684 0.177844 13.848689
v 12.258520 -0.177847 13.877461
v 12.258520 0.177844 13.877461
v 19.774532 0.177844 17.901244
v 19.774532 -0.177847 17.901244
v 10.795036 0.177844 15.674560
v 10.795036 -0.177847 15.674560
v 16.881715 -0.177847 21.643949
v 16.881715 0.177844 21.643949
v 13.887579 -0.177847 8.818040
v 13.887579 0.177844 8.818040
v 22.411478 0.177844 8.974333
v 22.411478 -0.177847 8.974333
v 13.838376 0.177844 18.659254
v 15.014659 0.177844 17.347583
v 16.016526 0.177844 15.889353
v 16.851680 0.177844 14.316497
v 17.504768 0.177844 12.578160
v 17.927193 0.177844 10.698653
v 18.149529 0.177844 8.896186
v 18.149529 -0.177847 8.896186
v 17.927193 -0.177847 10.698653
v 17.504768 -0.177847 12.578160
v 16.851680 -0.177847 14.316497
v 16.016526 -0.177847 15.889353
v 15.014659 -0.177847 17.347583
v 13.838376 -0.177847 18.659254
v 11.673233 -0.177847 18.817377
v 11.673233 0.177844 18.817377
v 12.925374 0.177844 17.763846
v 13.939095 0.177844 16.655852
v 14.889124 0.177844 15.285785
v 15.683049 0.177844 13.797238
v 16.284093 0.177844 12.197002
v 16.661845 0.177844 10.513653
v 16.870943 0.177844 8.872742
v 16.902361 0.177844 7.159336
v 16.902361 -0.177847 7.159336
v 16.870943 -0.177847 8.872742
v 16.661845 -0.177847 10.513653
v 16.284093 -0.177847 12.197002
v 15.683049 -0.177847 13.797238
v 14.889124 -0.177847 15.285785
v 13.939095 -0.177847 16.655852
v 12.925374 -0.177847 17.763846
v 18.020311 0.177844 14.835756
v 17.143928 0.177844 16.492920
v 16.090222 0.177844 18.039315
v 14.751378 0.177844 19.554663
v 13.362824 0.177844 20.737428
v 13.362824 -0.177847 20.737428
v 14.751378 -0.177847 19.554663
v 16.090222 -0.177847 18.039315
v 17.143928 -0.177847 16.492920
v 18.020311 -0.177847 14.835756
v 18.725443 -0.177847 12.959319
v 19.192539 -0.177847 10.883652
v 19.428114 -0.177847 8.919630
v 19.459530 -0.177847 7.206224
v 19.459530 0.177844 7.206224
v 19.428114 0.177844 8.919630
v 19.192539 0.177844 10.883652
v 18.725443 0.177844 12.959319
v 11.286398 -0.177847 20.201007
v 11.286398 0.177844 20.201007
v 11.613815 -0.177847 20.573085
v 11.613815 0.177844 20.573085
v 12.198734 0.177844 19.398178
v 12.526151 0.177844 19.770255
v 12.198734 -0.177847 19.398178
v 12.526151 -0.177847 19.770255
v 11.941233 0.177844 20.945162
v 12.853569 0.177844 20.142333
v 11.941233 -0.177847 20.945162
v 12.853569 -0.177847 20.142333
v 18.309401 0.177844 8.899118
v 17.992351 0.177844 8.893304
v 18.657066 0.177844 8.387383
v 18.158973 0.177844 8.381123
v 17.666497 0.177844 8.374933
v 17.971682 -0.177847 8.892925
v 18.331070 -0.177847 8.899515
v 17.657555 -0.177847 8.383661
v 18.158662 -0.177847 8.398089
v 18.655697 -0.177847 8.412400
vt 0.375000 0.000000
vt 0.625000 0.000000
vt 0.375000 0.250000
vt 0.625000 0.250000
vt 0.375000 0.500000
vt 0.625000 0.500000
vt 0.375000 0.750000
vt 0.625000 0.750000
vt 0.375000 1.000000
vt 0.625000 1.000000
vt 0.875000 0.000000
vt 0.875000 0.250000
vt 0.125000 0.000000
vt 0.125000 0.250000
vt 0.250000 0.250000
vt 0.375000 0.375000
vt 0.250000 0.000000
vt 0.375000 0.875000
vt 0.625000 0.875000
vt 0.750000 0.000000
vt 0.625000 0.375000
vt 0.750000 0.250000
vt 0.312500 0.250000
vt 0.375000 0.312500
vt 0.312500 0.000000
vt 0.375000 0.937500
vt 0.625000 0.937500
vt 0.687500 0.000000
vt 0.625000 0.312500
vt 0.687500 0.250000
vt 0.187500 0.000000
vt 0.375000 0.812500
vt 0.187500 0.250000
vt 0.375000 0.437500
vt 0.625000 0.437500
vt 0.812500 0.250000
vt 0.625000 0.812500
vt 0.812500 0.000000
vt 0.218750 0.250000
vt 0.375000 0.406250
vt 0.218750 0.000000
vt 0.375000 0.843750
vt 0.625000 0.843750
vt 0.781250 0.000000
vt 0.625000 0.406250
vt 0.781250 0.250000
vt 0.281250 0.000000
vt 0.375000 0.906250
vt 0.281250 0.250000
vt 0.375000 0.343750
vt 0.625000 0.343750
vt 0.718750 0.250000
vt 0.625000 0.906250
vt 0.718750 0.000000
vt 0.343750 0.250000
vt 0.375000 0.281250
vt 0.343750 0.000000
vt 0.375000 0.968750
vt 0.625000 0.968750
vt 0.656250 0.000000
vt 0.625000 0.281250
vt 0.656250 0.250000
vt 0.156250 0.000000
vt 0.375000 0.781250
vt 0.156250 0.250000
vt 0.375000 0.468750
vt 0.625000 0.468750
vt 0.843750 0.250000
vt 0.625000 0.781250
vt 0.843750 0.000000
vt 0.500000 0.000000
vt 0.500000 1.000000
vt 0.500000 0.250000
vt 0.500000 0.281250
vt 0.500000 0.312500
vt 0.500000 0.343750
vt 0.500000 0.375000
vt 0.500000 0.406250
vt 0.500000 0.437500
vt 0.500000 0.468750
vt 0.500000 0.781250
vt 0.500000 0.812500
vt 0.500000 0.843750
vt 0.500000 0.875000
vt 0.500000 0.906250
vt 0.500000 0.937500
vt 0.500000 0.968750
vt 0.462500 0.000000
vt 0.462500 1.000000
vt 0.462500 0.250000
vt 0.462500 0.281250
vt 0.462500 0.312500
vt 0.462500 0.343750
vt 0.462500 0.375000
vt 0.462500 0.406250
vt 0.462500 0.437500
vt 0.462500 0.468750
vt 0.462500 0.500000
vt 0.462500 0.750000
vt 0.462500 0.781250
vt 0.462500 0.812500
vt 0.462500 0.843750
vt 0.462500 0.875000
vt 0.462500 0.906250
vt 0.462500 0.937500
vt 0.462500 0.968750
vt 0.537500 0.375000
vt 0.537500 0.343750
vt 0.537500 0.312500
vt 0.537500 0.281250
vt 0.537500 0.250000
vt 0.537500 0.000000
vt 0.537500 1.000000
vt 0.537500 0.968750
vt 0.537500 0.937500
vt 0.537500 0.906250
vt 0.537500 0.875000
vt 0.537500 0.843750
vt 0.537500 0.812500
vt 0.537500 0.781250
vt 0.537500 0.750000
vt 0.537500 0.500000
vt 0.537500 0.468750
vt 0.537500 0.437500
vt 0.537500 0.406250
vt 0.462500 0.250000
vt 0.462500 0.000000
vt 0.462500 0.281250
vt 0.500000 0.281250
vt 0.462500 1.000000
vt 0.462500 0.968750
vt 0.500000 0.968750
vt 0.537500 0.250000
vt 0.537500 0.281250
vt 0.537500 0.000000
vt 0.537500 0.968750
vt 0.537500 1.000000
vt 0.504689 0.468750
vt 0.495390 0.468750
vt 0.514607 0.478196
vt 0.500000 0.478144
vt 0.485558 0.478092
vt 0.494784 0.781250
vt 0.505324 0.781250
vt 0.485300 0.772070
vt 0.500000 0.772165
vt 0.514580 0.772260
vt 0.000000 0.000000
vt 0.127801 0.000000
vt 0.126452 1.000000
vt 0.000000 0.999999
vt 0.000095 0.000000
vt 0.058427 0.999996
vt 0.000000 1.000000
vt 0.042513 0.000000
vt 0.169435 0.000000
vt 0.169435 0.999955
vt 0.042223 0.999957
vt 0.000000 0.000044
vn -0.750724 0.000000 0.660616
vn -0.750724 0.000000 0.660616
vn -0.750724 0.000000 0.660616
vn -0.750724 0.000000 0.660616
vn -0.000000 1.000000 0.000000
vn -0.000000 1.000000 0.000000
vn -0.000000 1.000000 0.000000
vn -0.000000 1.000000 0.000000
vn 0.018333 0.000000 -0.999832
vn 0.064817 0.979577 -0.190334
vn 0.064735 -0.979630 -0.190092
vn 0.018333 0.000000 -0.999832
vn -0.000000 -1.000000 0.000000
vn -0.000000 -1.000000 0.000000
vn -0.000000 -1.000000 0.000000
vn -0.000000 -1.000000 0.000000
vn 0.652747 0.000000 0.757576
vn 0.713332 0.000000 0.700826
vn 0.713332 0.000000 0.700826
vn 0.652747 0.000000 0.757576
vn -0.664372 0.000000 -0.747402
vn -0.664372 0.000000 -0.747402
vn -0.636819 0.000000 -0.771013
vn -0.636819 0.000000 -0.771013
vn -0.999832 0.000000 -0.018333
vn -0.997531 0.000000 -0.070234
vn -0.997531 0.000000 -0.070234
vn -0.999832 0.000000 -0.018333
vn 0.000000 -1.000000 -0.000000
vn 0.000000 -1.000000 0.000000
vn 0.000000 -1.000000 -0.000000
vn 0.997312 0.000000 0.073274
vn 0.997312 0.000000 0.073274
vn 0.999832 0.000000 0.018334
vn 0.999832 0.000000 0.018334
vn -0.000000 1.000000 0.000000
vn -0.000000 1.000000 0.000000
vn 0.000000 1.000000 0.000000
vn -0.909133 0.000000 -0.416507
vn -0.909133 0.000000 -0.416507
vn -0.849288 0.000000 -0.527929
vn -0.849288 0.000000 -0.527929
vn 0.000000 -1.000000 -0.000000
vn 0.000000 -1.000000 -0.000000
vn 0.000000 -1.000000 -0.000000
vn -0.000000 -1.000000 0.000000
vn 0.859207 0.000000 0.511629
vn 0.859207 0.000000 0.511629
vn 0.913978 0.000000 0.405765
vn 0.913978 0.000000 0.405765
vn -0.000000 1.000000 0.000000
vn 0.000000 1.000000 -0.000000
vn 0.000000 1.000000 -0.000000
vn 0.000000 1.000000 -0.000000
vn -0.957612 0.000000 -0.288061
vn -0.957612 0.000000 -0.288061
vn 0.000000 1.000000 -0.000000
vn 0.000000 1.000000 -0.000000
vn 0.959029 0.000000 0.283308
vn 0.959029 0.000000 0.283308
vn 0.000000 -1.000000 -0.000000
vn 0.000000 -1.000000 -0.000000
vn -0.983934 0.000000 -0.178531
vn -0.983934 0.000000 -0.178531
vn -0.000000 -1.000000 0.000000
vn -0.000000 -1.000000 0.000000
vn 0.985548 0.000000 0.169394
vn 0.985548 0.000000 0.169394
vn -0.000000 1.000000 0.000000
vn -0.000000 1.000000 0.000000
vn -0.775408 0.000000 -0.631460
vn -0.775408 0.000000 -0.631460
vn -0.000000 1.000000 0.000000
vn -0.000000 1.000000 0.000000
vn 0.791211 0.000000 0.611544
vn 0.791211 0.000000 0.611544
vn -0.000000 -1.000000 0.000000
vn -0.000000 -1.000000 0.000000
vn -0.750724 0.000000 0.660616
vn -0.750724 0.000000 0.660616
vn -0.750724 0.000000 0.660616
vn -0.750724 0.000000 0.660616
vn 0.000000 1.000000 0.000000
vn 0.000000 1.000000 0.000000
vn 0.000000 1.000000 0.000000
vn 0.000000 1.000000 0.000000
vn 0.000000 1.000000 -0.000000
vn 0.000000 1.000000 -0.000000
vn -0.000000 1.000000 0.000000
vn 0.000000 1.000000 -0.000000
vn -0.000000 1.000000 0.000000
vn -0.000000 1.000000 0.000000
vn 0.000000 1.000000 -0.000000
vn -0.000000 1.000000 0.000000
vn -0.000000 1.000000 0.000000
vn 0.000000 1.000000 -0.000000
vn -0.000000 1.000000 -0.000000
vn -0.000000 1.000000 0.000000
vn -0.093700 0.945613 -0.311507
vn 0.000000 1.000000 0.000000
vn -0.093674 -0.945644 -0.311421
vn 0.018333 0.000000 -0.999832
vn 0.018333 0.000000 -0.999832
vn -0.000000 -1.000000 0.000000
vn 0.000000 -1.000000 0.000000
vn -0.000000 -1.000000 0.000000
vn -0.000000 -1.000000 0.000000
vn 0.000000 -1.000000 -0.000000
vn 0.000000 -1.000000 -0.000000
vn -0.000000 -1.000000 0.000000
vn -0.000000 -1.000000 0.000000
vn -0.000000 -1.000000 0.000000
vn -0.000000 -1.000000 0.000000
vn 0.000000 -1.000000 -0.000000
vn 0.000000 -1.000000 -0.000000
vn 0.000000 -1.000000 -0.000000
vn 0.000000 -1.000000 0.000000
vn 0.000000 -1.000000 0.000000
vn 0.000000 -1.000000 0.000000
vn 0.000000 -1.000000 0.000000
vn -0.750724 0.000000 0.660616
vn -0.750724 0.000000 0.660616
vn -0.750724 0.000000 0.660616
vn -0.750724 0.000000 0.660616
vn 0.000000 1.000000 -0.000000
vn 0.000000 1.000000 -0.000000
vn 0.000000 1.000000 -0.000000
vn 0.000000 1.000000 -0.000000
vn 0.000000 1.000000 0.000000
vn 0.000000 1.000000 0.000000
vn -0.000000 1.000000 0.000000
vn 0.000000 1.000000 -0.000000
vn 0.000000 1.000000 -0.000000
vn -0.000000 1.000000 0.000000
vn -0.000000 1.000000 0.000000
vn -0.000000 1.000000 0.000000
vn 0.019042 0.392952 -0.919362
vn 0.209037 0.932159 -0.295607
vn 0.207553 -0.933184 -0.293410
vn -0.000000 -1.000000 0.000000
vn -0.000000 -1.000000 0.000000
vn 0.000000 -1.000000 0.000000
vn 0.000000 -1.000000 0.000000
vn 0.000000 -1.000000 -0.000000
vn -0.000000 -1.000000 0.000000
vn 0.000000 -1.000000 0.000000
vn 0.000000 -1.000000 0.000000
vn 0.000000 -1.000000 -0.000000
vn 0.000000 -1.000000 -0.000000
vn 0.000000 -1.000000 -0.000000
vn 0.000000 -1.000000 -0.000000
vn 0.000000 1.000000 -0.000000
vn 0.000000 1.000000 -0.000000
vn -0.750723 0.000000 0.660617
vn -0.750723 0.000000 0.660617
vn 0.000000 -1.000000 -0.000000
vn 0.000000 -1.000000 -0.000000
vn -0.000000 -1.000000 -0.000000
vn 0.018326 -0.465685 -0.884761
vn -0.190868 -0.937006 -0.292555
vn -0.192672 0.935825 -0.295143
vn 0.000000 1.000000 -0.000000
vn -0.963069 0.000000 -0.269255
vn -0.963069 0.000000 -0.269255
vn -0.963069 0.000000 -0.269255
vn -0.963069 0.000000 -0.269255
vn -0.000000 1.000000 0.000000
vn -0.000000 1.000000 0.000000
vn -0.000000 1.000000 0.000000
vn -0.000000 1.000000 0.000000
vn 0.000000 1.000000 -0.000000
vn 0.000000 1.000000 -0.000000
vn 0.000000 1.000000 -0.000000
vn 0.000000 1.000000 -0.000000
vn 0.000000 -1.000000 0.000000
vn 0.000000 -1.000000 0.000000
vn 0.000000 -1.000000 0.000000
vn 0.000000 -1.000000 0.000000
vn 0.000000 -1.000000 0.000000
vn 0.000000 -1.000000 0.000000
vn 0.000000 -1.000000 0.000000
vn 0.000000 -1.000000 0.000000
vn 0.000000 1.000000 0.000000
vn 0.000000 1.000000 0.000000
vn 0.000000 1.000000 0.000000
vn 0.000000 1.000000 0.000000
vn 0.000000 1.000000 -0.000000
vn 0.000000 1.000000 -0.000000
vn 0.000000 1.000000 -0.000000
vn 0.000000 1.000000 -0.000000
vn 0.144592 0.000000 0.989491
vn 0.144592 0.000000 0.989491
vn 0.144592 0.000000 0.989491
vn 0.144592 0.000000 0.989491
vn 0.000000 -1.000000 -0.000000
vn 0.000000 -1.000000 -0.000000
vn 0.000000 -1.000000 -0.000000
vn 0.000000 -1.000000 -0.000000
vn 0.000000 -1.000000 0.000000
vn 0.000000 -1.000000 0.000000
vn 0.000000 -1.000000 0.000000
vn 0.000000 -1.000000 0.000000
s off
g bend_piece_right
usemtl lambert2SG
f 1/1/1 51/88/2 52/90/3 3/3/4
s 1
f 3/3/5 52/90/6 53/91/7 29/56/8
f 5/5/9 60/98/10 61/99/11 7/7/12
f 30/58/13 68/106/14 51/89/15 1/9/16
s 4
f 2/2/17 31/60/18 32/62/19 4/4/20
s 5
f 29/55/21 30/57/22 1/1/23 3/3/24
f 7/13/25 33/63/26 34/65/27 5/14/28
s 1
f 7/7/29 61/99/11 62/100/30 33/64/31
s 4
f 35/68/32 36/70/33 8/11/34 6/12/35
s 1
f 34/66/36 59/97/37 60/98/10 5/5/38
s 5
f 9/15/39 10/17/40 25/47/41 26/49/42
s 1
f 10/18/43 65/103/44 66/104/45 25/48/46
s 4
f 27/52/47 28/54/48 11/20/49 12/22/50
s 1
f 26/50/51 55/93/52 56/94/53 9/16/54
s 5
f 21/39/55 22/41/56 10/17/40 9/15/39
s 1
f 9/16/54 56/94/53 57/95/57 21/40/58
s 4
f 12/22/50 11/20/49 23/44/59 24/46/60
s 1
f 22/42/61 64/102/62 65/103/44 10/18/43
s 5
f 18/33/63 17/31/64 22/41/56 21/39/55
s 1
f 17/32/65 63/101/66 64/102/62 22/42/61
s 4
f 24/46/60 23/44/59 20/38/67 19/36/68
s 1
f 21/40/58 57/95/57 58/96/69 18/34/70
s 5
f 26/49/42 25/47/41 14/25/71 13/23/72
s 1
f 13/24/73 54/92/74 55/93/52 26/50/51
s 4
f 16/30/75 15/28/76 28/54/48 27/52/47
s 1
f 25/48/46 66/104/45 67/105/77 14/26/78
s 5
f 13/23/72 14/25/71 30/57/22 29/55/21
s 1
f 14/26/78 67/105/77 68/106/14 30/58/13
s 4
f 32/62/19 31/60/18 15/28/76 16/30/75
s 1
f 29/56/8 53/91/7 54/92/74 13/24/73
s 5
f 34/65/27 33/63/26 17/31/64 18/33/63
s 1
f 18/34/70 58/96/69 59/97/37 34/66/36
s 4
f 19/36/68 20/38/67 36/70/33 35/68/32
s 1
f 33/64/31 62/100/30 63/101/66 17/32/65
s off
f 73/111/79 74/112/80 2/2/81 4/4/82
s 1
f 72/110/83 73/111/84 4/4/85 32/61/86
f 71/109/87 72/110/83 32/61/86 16/29/88
f 70/108/89 71/109/87 16/29/88 27/51/90
f 69/107/91 70/108/89 27/51/90 12/21/92
f 86/125/93 69/107/91 12/21/92 24/45/94
f 85/124/95 86/125/93 24/45/94 19/35/96
f 84/123/97 85/124/95 19/35/96 35/67/98
f 83/122/99 84/123/97 35/67/98 6/6/100
f 82/121/101 83/122/99 6/6/102 8/8/103
f 81/120/104 82/121/101 8/8/105 36/69/106
f 80/119/107 81/120/104 36/69/106 20/37/108
f 79/118/109 80/119/107 20/37/108 23/43/110
f 78/117/111 79/118/109 23/43/110 11/19/112
f 77/116/113 78/117/111 11/19/112 28/53/114
f 76/115/115 77/116/113 28/53/114 15/27/116
f 75/114/117 76/115/115 15/27/116 31/59/118
f 74/113/119 75/114/117 31/59/118 2/10/120
s 17
f 88/126/121 87/127/122 89/71/123 90/73/124
s 18
f 91/128/125 88/126/126 90/73/127 92/129/128
s 1
f 54/92/74 53/91/7 37/74/129 38/75/130
f 55/93/52 54/92/74 38/75/130 39/76/131
f 56/94/53 55/93/52 39/76/131 40/77/132
f 57/95/57 56/94/53 40/77/132 41/78/133
f 58/96/69 57/95/57 41/78/133 42/79/134
f 59/97/37 58/96/69 42/79/134 43/80/135 100/139/136
f 102/141/137 103/142/138 100/139/136 43/80/135
f 62/100/30 61/99/11 106/145/139 104/143/140
f 63/101/66 62/100/30 104/143/140 44/81/141 45/82/142
f 64/102/62 63/101/66 45/82/142 46/83/143
f 65/103/44 64/102/62 46/83/143 47/84/144
f 66/104/45 65/103/44 47/84/144 48/85/145
f 67/105/77 66/104/45 48/85/145 49/86/146
f 68/106/14 67/105/77 49/86/146 50/87/147
s 19
f 87/130/148 93/131/149 94/132/150 89/72/151
s 1
f 40/77/132 39/76/131 70/108/89 69/107/91
f 39/76/131 38/75/130 71/109/87 70/108/89
f 38/75/130 37/74/129 72/110/83 71/109/87
s 18
f 92/129/128 90/73/127 95/133/152 96/134/153
s 17
f 90/73/124 89/71/123 97/135/154 95/133/155
s 19
f 89/72/151 94/132/150 98/136/156 97/137/157
s 1
f 50/87/147 49/86/146 76/115/115 75/114/117
f 49/86/146 48/85/145 77/116/113 76/115/115
f 48/85/145 47/84/144 78/117/111 77/116/113
f 47/84/144 46/83/143 79/118/109 78/117/111
f 46/83/143 45/82/142 80/119/107 79/118/109
f 45/82/142 44/81/141 105/144/158 81/120/104 80/119/107
f 44/81/141 107/146/159 108/147/160 105/144/158
f 83/122/99 101/140/161 99/138/162 84/123/97
f 43/80/135 42/79/134 85/124/95 84/123/97 99/138/162
f 42/79/134 41/78/133 86/125/93 85/124/95
f 41/78/133 40/77/132 69/107/91 86/125/93
s off
f 52/90/163 51/88/164 87/127/165 88/126/166
f 53/91/167 52/90/168 88/126/169 91/128/170
f 37/74/171 53/91/172 91/128/173 92/129/174
f 51/89/175 68/106/176 93/131/177 87/130/178
f 68/106/179 50/87/180 94/132/181 93/131/182
f 73/111/183 72/110/184 96/134/185 95/133/186
f 72/110/187 37/74/188 92/129/189 96/134/190
f 74/112/191 73/111/192 95/133/193 97/135/194
f 50/87/195 75/114/196 98/136/197 94/132/198
f 75/114/199 74/113/200 97/137/201 98/136/202
s 1
f 101/140/161 102/141/137 43/80/135 99/138/162
f 60/98/10 59/97/37 100/139/136 103/142/138
f 105/144/158 108/147/160 82/121/101 81/120/104
f 104/143/140 106/145/139 107/146/159 44/81/141
f 82/148/101 108/149/160 101/150/161 83/151/99
f 102/153/137 101/154/161 108/152/160 107/159/159 106/155/139 103/158/138
f 103/158/138 106/155/139 61/156/11 60/157/10
