# This file uses centimeters as units for non-parametric coordinates.

mtllib Toy Blocks Exp.mtl
g default
v -0.823460 0.045171 1.219244
v 0.176540 0.045171 1.219244
v -0.823460 1.045171 1.219244
v 0.176540 1.045171 1.219244
v -0.823460 1.045171 0.219244
v 0.176540 1.045171 0.219244
v -0.823460 0.045171 0.219244
v 0.176540 0.045171 0.219244
vt 0.001890 0.668528
vt 0.331370 0.668528
vt 0.331370 0.998008
vt 0.001890 0.998008
vt 0.338705 0.668528
vt 0.668185 0.668528
vt 0.668185 0.998008
vt 0.338705 0.998008
vt 0.338705 0.001992
vt 0.668185 0.001992
vt 0.668185 0.331472
vt 0.338705 0.331472
vt 0.282356 0.335260
vt 0.611836 0.335260
vt 0.611836 0.664740
vt 0.282356 0.664740
vt 0.001891 0.001992
vt 0.331370 0.001992
vt 0.331370 0.331472
vt 0.001891 0.331472
vt 0.617659 0.335260
vt 0.947139 0.335260
vt 0.947139 0.664740
vt 0.617659 0.664740
vn 0.000000 0.000000 1.000000
vn 0.000000 0.000000 1.000000
vn 0.000000 0.000000 1.000000
vn 0.000000 0.000000 1.000000
vn 0.000000 1.000000 0.000000
vn 0.000000 1.000000 0.000000
vn 0.000000 1.000000 0.000000
vn 0.000000 1.000000 0.000000
vn 0.000000 0.000000 -1.000000
vn 0.000000 0.000000 -1.000000
vn 0.000000 0.000000 -1.000000
vn 0.000000 0.000000 -1.000000
vn 0.000000 -1.000000 0.000000
vn 0.000000 -1.000000 0.000000
vn 0.000000 -1.000000 0.000000
vn 0.000000 -1.000000 0.000000
vn 1.000000 0.000000 0.000000
vn 1.000000 0.000000 0.000000
vn 1.000000 0.000000 0.000000
vn 1.000000 0.000000 0.000000
vn -1.000000 0.000000 0.000000
vn -1.000000 0.000000 0.000000
vn -1.000000 0.000000 0.000000
vn -1.000000 0.000000 0.000000
s off
g pCube1
usemtl standardSurface7SG
f 1/17/1 2/18/2 4/19/3 3/20/4
f 3/9/5 4/10/6 6/11/7 5/12/8
f 5/21/9 6/22/10 8/23/11 7/24/12
f 7/13/13 8/14/14 2/15/15 1/16/16
f 2/1/17 8/2/18 6/3/19 4/4/20
f 7/5/21 1/6/22 3/7/23 5/8/24
g default
v 0.588883 0.045171 0.534942
v 1.536984 0.045171 0.216973
v 0.588883 1.045171 0.534942
v 1.536984 1.045171 0.216973
v 0.270914 1.045171 -0.413159
v 1.219015 1.045171 -0.731128
v 0.270914 0.045171 -0.413159
v 1.219015 0.045171 -0.731128
vt 0.001891 0.668528
vt 0.331371 0.668528
vt 0.331371 0.998008
vt 0.001891 0.998008
vt 0.338705 0.668528
vt 0.668185 0.668528
vt 0.668185 0.998008
vt 0.338705 0.998008
vt 0.338705 0.001992
vt 0.668185 0.001992
vt 0.668185 0.331472
vt 0.338705 0.331472
vt 0.282356 0.335260
vt 0.611836 0.335260
vt 0.611836 0.664740
vt 0.282356 0.664740
vt 0.001890 0.001992
vt 0.331370 0.001992
vt 0.331370 0.331472
vt 0.001890 0.331472
vt 0.617659 0.335260
vt 0.947139 0.335260
vt 0.947139 0.664740
vt 0.617659 0.664740
vn 0.317970 0.000000 0.948101
vn 0.317970 0.000000 0.948101
vn 0.317970 0.000000 0.948101
vn 0.317970 0.000000 0.948101
vn 0.000000 1.000000 0.000000
vn 0.000000 1.000000 0.000000
vn 0.000000 1.000000 0.000000
vn 0.000000 1.000000 0.000000
vn -0.317970 0.000000 -0.948101
vn -0.317970 0.000000 -0.948101
vn -0.317970 0.000000 -0.948101
vn -0.317970 0.000000 -0.948101
vn 0.000000 -1.000000 0.000000
vn 0.000000 -1.000000 0.000000
vn 0.000000 -1.000000 0.000000
vn 0.000000 -1.000000 0.000000
vn 0.948101 0.000000 -0.317970
vn 0.948101 0.000000 -0.317970
vn 0.948101 0.000000 -0.317970
vn 0.948101 0.000000 -0.317970
vn -0.948101 0.000000 0.317970
vn -0.948101 0.000000 0.317970
vn -0.948101 0.000000 0.317970
vn -0.948101 0.000000 0.317970
s off
g pCube2
usemtl texturedFacets1
f 9/41/25 10/42/26 12/43/27 11/44/28
f 11/33/29 12/34/30 14/35/31 13/36/32
f 13/45/33 14/46/34 16/47/35 15/48/36
f 15/37/37 16/38/38 10/39/39 9/40/40
f 10/25/41 16/26/42 14/27/43 12/28/44
f 15/29/45 9/30/46 11/31/47 13/32/48
g default
v 0.265507 1.047614 0.595458
v 0.821264 1.047614 -0.235887
v 0.265507 2.047614 0.595458
v 0.821264 2.047614 -0.235887
v -0.565838 2.047614 0.039701
v -0.010081 2.047614 -0.791644
v -0.565838 1.047614 0.039701
v -0.010081 1.047614 -0.791644
vt 0.001890 0.998008
vt 0.001890 0.668528
vt 0.331371 0.668528
vt 0.331371 0.998008
vt 0.338705 0.668528
vt 0.668185 0.668528
vt 0.668185 0.998008
vt 0.338705 0.998008
vt 0.338705 0.001992
vt 0.668185 0.001992
vt 0.668185 0.331472
vt 0.338705 0.331472
vt 0.282356 0.335260
vt 0.611836 0.335260
vt 0.611836 0.664740
vt 0.282356 0.664740
vt 0.001891 0.001992
vt 0.331370 0.001992
vt 0.331370 0.331472
vt 0.001891 0.331472
vt 0.617659 0.335260
vt 0.947139 0.335260
vt 0.947139 0.664740
vt 0.617659 0.664740
vn 0.831345 0.000000 0.555757
vn 0.831345 0.000000 0.555757
vn 0.831345 0.000000 0.555757
vn 0.831345 0.000000 0.555757
vn 0.000000 1.000000 0.000000
vn 0.000000 1.000000 0.000000
vn 0.000000 1.000000 0.000000
vn 0.000000 1.000000 0.000000
vn -0.831345 0.000000 -0.555757
vn -0.831345 0.000000 -0.555757
vn -0.831345 0.000000 -0.555757
vn -0.831345 0.000000 -0.555757
vn 0.000000 -1.000000 0.000000
vn 0.000000 -1.000000 0.000000
vn 0.000000 -1.000000 0.000000
vn 0.000000 -1.000000 0.000000
vn 0.555757 0.000000 -0.831345
vn 0.555757 0.000000 -0.831345
vn 0.555757 0.000000 -0.831345
vn 0.555757 0.000000 -0.831345
vn -0.555757 0.000000 0.831345
vn -0.555757 0.000000 0.831345
vn -0.555757 0.000000 0.831345
vn -0.555757 0.000000 0.831345
s off
g pCube3
usemtl texturedFacets2
f 17/65/49 18/66/50 20/67/51 19/68/52
f 19/57/53 20/58/54 22/59/55 21/60/56
f 21/69/57 22/70/58 24/71/59 23/72/60
f 23/61/61 24/62/62 18/63/63 17/64/64
f 18/49/65 24/50/66 22/51/67 20/52/68
f 23/53/69 17/54/70 19/55/71 21/56/72
g default
v -0.902905 0.045171 -0.026052
v 0.078016 0.045171 -0.220459
v -0.902905 1.045171 -0.026052
v 0.078016 1.045171 -0.220459
v -1.097312 1.045171 -1.006973
v -0.116391 1.045171 -1.201380
v -1.097312 0.045171 -1.006973
v -0.116391 0.045171 -1.201380
vt 0.001890 0.668528
vt 0.331371 0.668528
vt 0.331371 0.998008
vt 0.001890 0.998008
vt 0.338705 0.668528
vt 0.668185 0.668528
vt 0.668185 0.998008
vt 0.338705 0.998008
vt 0.338705 0.001992
vt 0.668185 0.001992
vt 0.668185 0.331472
vt 0.338705 0.331472
vt 0.282356 0.335260
vt 0.611836 0.335260
vt 0.611836 0.664740
vt 0.282356 0.664740
vt 0.001891 0.001992
vt 0.331371 0.001992
vt 0.331371 0.331472
vt 0.001891 0.331472
vt 0.617659 0.664740
vt 0.617659 0.335260
vt 0.947139 0.335260
vt 0.947139 0.664740
vn 0.194407 0.000000 0.980921
vn 0.194407 0.000000 0.980921
vn 0.194407 0.000000 0.980921
vn 0.194407 0.000000 0.980921
vn 0.000000 1.000000 0.000000
vn 0.000000 1.000000 0.000000
vn 0.000000 1.000000 0.000000
vn 0.000000 1.000000 0.000000
vn -0.194407 0.000000 -0.980921
vn -0.194407 0.000000 -0.980921
vn -0.194407 0.000000 -0.980921
vn -0.194407 0.000000 -0.980921
vn 0.000000 -1.000000 0.000000
vn 0.000000 -1.000000 0.000000
vn 0.000000 -1.000000 0.000000
vn 0.000000 -1.000000 0.000000
vn 0.980921 0.000000 -0.194407
vn 0.980921 0.000000 -0.194407
vn 0.980921 0.000000 -0.194407
vn 0.980921 0.000000 -0.194407
vn -0.980921 0.000000 0.194407
vn -0.980921 0.000000 0.194407
vn -0.980921 0.000000 0.194407
vn -0.980921 0.000000 0.194407
s off
g pCube4
usemtl texturedFacets3
f 25/89/73 26/90/74 28/91/75 27/92/76
f 27/81/77 28/82/78 30/83/79 29/84/80
f 29/93/81 30/94/82 32/95/83 31/96/84
f 31/85/85 32/86/86 26/87/87 25/88/88
f 26/73/89 32/74/90 30/75/91 28/76/92
f 31/77/93 25/78/94 27/79/95 29/80/96
